<?xml version="1.0" encoding="UTF-8" standalone="no"?>
<!DOCTYPE svg PUBLIC "-//W3C//DTD SVG 1.1//EN"
 "http://www.w3.org/Graphics/SVG/1.1/DTD/svg11.dtd">
<!-- Generated by graphviz version 2.40.1 (20161225.0304)
 -->
<!-- Title: %3 Pages: 1 -->
<svg width="1388pt" height="404pt"
 viewBox="0.00 0.00 1388.41 404.00" xmlns="http://www.w3.org/2000/svg" xmlns:xlink="http://www.w3.org/1999/xlink">
<g id="graph0" class="graph" transform="scale(1 1) rotate(0) translate(4 400)">
<title>%3</title>
<polygon fill="#ffffff" stroke="transparent" points="-4,4 -4,-400 1384.4132,-400 1384.4132,4 -4,4"/>
<!-- [root] aws_instance.centos -->
<g id="node1" class="node">
<title>[root] aws_instance.centos</title>
<polygon fill="none" stroke="#000000" points="201.9662,-252 72.1517,-252 72.1517,-216 201.9662,-216 201.9662,-252"/>
<text text-anchor="middle" x="137.0589" y="-229.8" font-family="Times,serif" font-size="14.00" fill="#000000">aws_instance.centos</text>
</g>
<!-- [root] provider.aws -->
<g id="node5" class="node">
<title>[root] provider.aws</title>
<polygon fill="none" stroke="#000000" points="232.0589,-108 153.4506,-90 232.0589,-72 310.6673,-90 232.0589,-108"/>
<text text-anchor="middle" x="232.0589" y="-85.8" font-family="Times,serif" font-size="14.00" fill="#000000">provider.aws</text>
</g>
<!-- [root] aws_instance.centos&#45;&gt;[root] provider.aws -->
<g id="edge1" class="edge">
<title>[root] aws_instance.centos&#45;&gt;[root] provider.aws</title>
<path fill="none" stroke="#000000" d="M144.2915,-215.9211C152.2129,-197.1311 165.9558,-167.2721 182.0589,-144 189.8969,-132.6725 200.0012,-121.3085 209.0726,-111.9478"/>
<polygon fill="#000000" stroke="#000000" points="211.8088,-114.16 216.3774,-104.6008 206.8447,-109.2245 211.8088,-114.16"/>
</g>
<!-- [root] var.role_purpose -->
<g id="node6" class="node">
<title>[root] var.role_purpose</title>
<ellipse fill="none" stroke="#000000" cx="629.0589" cy="-18" rx="91.7825" ry="18"/>
<text text-anchor="middle" x="629.0589" y="-13.8" font-family="Times,serif" font-size="14.00" fill="#000000">[root] var.role_purpose</text>
</g>
<!-- [root] aws_instance.centos&#45;&gt;[root] var.role_purpose -->
<g id="edge2" class="edge">
<title>[root] aws_instance.centos&#45;&gt;[root] var.role_purpose</title>
<path fill="none" stroke="#000000" d="M131.1584,-215.8317C121.5942,-182.4989 107.251,-111.3881 144.0589,-72 169.8337,-44.4184 394.8074,-29.0676 529.115,-22.2863"/>
<polygon fill="#000000" stroke="#000000" points="529.6084,-25.7662 539.4222,-21.7737 529.2607,-18.7748 529.6084,-25.7662"/>
</g>
<!-- [root] module.iam_role_for_ec2_to_cloud_watch.aws_iam_instance_profile.iam_instance_profile_m -->
<g id="node2" class="node">
<title>[root] module.iam_role_for_ec2_to_cloud_watch.aws_iam_instance_profile.iam_instance_profile_m</title>
<polygon fill="none" stroke="#000000" points="1277.974,-252 732.1439,-252 732.1439,-216 1277.974,-216 1277.974,-252"/>
<text text-anchor="middle" x="1005.0589" y="-229.8" font-family="Times,serif" font-size="14.00" fill="#000000">module.iam_role_for_ec2_to_cloud_watch.aws_iam_instance_profile.iam_instance_profile_m</text>
</g>
<!-- [root] module.iam_role_for_ec2_to_cloud_watch.aws_iam_role.iam_role -->
<g id="node3" class="node">
<title>[root] module.iam_role_for_ec2_to_cloud_watch.aws_iam_role.iam_role</title>
<polygon fill="none" stroke="#000000" points="1154.2739,-180 761.844,-180 761.844,-144 1154.2739,-144 1154.2739,-180"/>
<text text-anchor="middle" x="958.0589" y="-157.8" font-family="Times,serif" font-size="14.00" fill="#000000">module.iam_role_for_ec2_to_cloud_watch.aws_iam_role.iam_role</text>
</g>
<!-- [root] module.iam_role_for_ec2_to_cloud_watch.aws_iam_instance_profile.iam_instance_profile_m&#45;&gt;[root] module.iam_role_for_ec2_to_cloud_watch.aws_iam_role.iam_role -->
<g id="edge6" class="edge">
<title>[root] module.iam_role_for_ec2_to_cloud_watch.aws_iam_instance_profile.iam_instance_profile_m&#45;&gt;[root] module.iam_role_for_ec2_to_cloud_watch.aws_iam_role.iam_role</title>
<path fill="none" stroke="#000000" d="M993.1988,-215.8314C987.896,-207.7079 981.5352,-197.9637 975.6916,-189.0118"/>
<polygon fill="#000000" stroke="#000000" points="978.4758,-186.8739 970.0787,-180.4133 972.6141,-190.7003 978.4758,-186.8739"/>
</g>
<!-- [root] module.iam_role_for_ec2_to_cloud_watch.aws_iam_role.iam_role&#45;&gt;[root] provider.aws -->
<g id="edge9" class="edge">
<title>[root] module.iam_role_for_ec2_to_cloud_watch.aws_iam_role.iam_role&#45;&gt;[root] provider.aws</title>
<path fill="none" stroke="#000000" d="M761.7957,-144.8317C758.5258,-144.5519 755.2783,-144.2745 752.0589,-144 559.6486,-127.5952 510.1829,-135.613 319.0589,-108 306.7749,-106.2252 293.6175,-103.7877 281.3494,-101.2795"/>
<polygon fill="#000000" stroke="#000000" points="281.7977,-97.7974 271.292,-99.1689 280.36,-104.6482 281.7977,-97.7974"/>
</g>
<!-- [root] module.iam_role_for_ec2_to_cloud_watch.var.assume_role_policy -->
<g id="node8" class="node">
<title>[root] module.iam_role_for_ec2_to_cloud_watch.var.assume_role_policy</title>
<ellipse fill="none" stroke="#000000" cx="599.0589" cy="-90" rx="270.8314" ry="18"/>
<text text-anchor="middle" x="599.0589" y="-85.8" font-family="Times,serif" font-size="14.00" fill="#000000">[root] module.iam_role_for_ec2_to_cloud_watch.var.assume_role_policy</text>
</g>
<!-- [root] module.iam_role_for_ec2_to_cloud_watch.aws_iam_role.iam_role&#45;&gt;[root] module.iam_role_for_ec2_to_cloud_watch.var.assume_role_policy -->
<g id="edge7" class="edge">
<title>[root] module.iam_role_for_ec2_to_cloud_watch.aws_iam_role.iam_role&#45;&gt;[root] module.iam_role_for_ec2_to_cloud_watch.var.assume_role_policy</title>
<path fill="none" stroke="#000000" d="M867.9314,-143.9243C814.9426,-133.297 748.0033,-119.8719 694.1725,-109.0757"/>
<polygon fill="#000000" stroke="#000000" points="694.773,-105.6265 684.28,-107.0917 693.3965,-112.4899 694.773,-105.6265"/>
</g>
<!-- [root] module.iam_role_for_ec2_to_cloud_watch.var.role_purpose -->
<g id="node9" class="node">
<title>[root] module.iam_role_for_ec2_to_cloud_watch.var.role_purpose</title>
<ellipse fill="none" stroke="#000000" cx="1134.0589" cy="-90" rx="246.2087" ry="18"/>
<text text-anchor="middle" x="1134.0589" y="-85.8" font-family="Times,serif" font-size="14.00" fill="#000000">[root] module.iam_role_for_ec2_to_cloud_watch.var.role_purpose</text>
</g>
<!-- [root] module.iam_role_for_ec2_to_cloud_watch.aws_iam_role.iam_role&#45;&gt;[root] module.iam_role_for_ec2_to_cloud_watch.var.role_purpose -->
<g id="edge8" class="edge">
<title>[root] module.iam_role_for_ec2_to_cloud_watch.aws_iam_role.iam_role&#45;&gt;[root] module.iam_role_for_ec2_to_cloud_watch.var.role_purpose</title>
<path fill="none" stroke="#000000" d="M1002.4712,-143.8314C1026.3999,-134.0423 1056.0812,-121.9 1081.1947,-111.6263"/>
<polygon fill="#000000" stroke="#000000" points="1082.6442,-114.8149 1090.5745,-107.7891 1079.9938,-108.3361 1082.6442,-114.8149"/>
</g>
<!-- [root] module.iam_role_for_ec2_to_cloud_watch.aws_iam_role_policy.iam_role_policy_m -->
<g id="node4" class="node">
<title>[root] module.iam_role_for_ec2_to_cloud_watch.aws_iam_role_policy.iam_role_policy_m</title>
<polygon fill="none" stroke="#000000" points="713.7407,-252 220.3772,-252 220.3772,-216 713.7407,-216 713.7407,-252"/>
<text text-anchor="middle" x="467.0589" y="-229.8" font-family="Times,serif" font-size="14.00" fill="#000000">module.iam_role_for_ec2_to_cloud_watch.aws_iam_role_policy.iam_role_policy_m</text>
</g>
<!-- [root] module.iam_role_for_ec2_to_cloud_watch.aws_iam_role_policy.iam_role_policy_m&#45;&gt;[root] module.iam_role_for_ec2_to_cloud_watch.aws_iam_role.iam_role -->
<g id="edge10" class="edge">
<title>[root] module.iam_role_for_ec2_to_cloud_watch.aws_iam_role_policy.iam_role_policy_m&#45;&gt;[root] module.iam_role_for_ec2_to_cloud_watch.aws_iam_role.iam_role</title>
<path fill="none" stroke="#000000" d="M590.0087,-215.9707C661.4955,-205.4879 751.6279,-192.2709 824.8049,-181.5403"/>
<polygon fill="#000000" stroke="#000000" points="825.628,-184.9571 835.0143,-180.0432 824.6123,-178.0312 825.628,-184.9571"/>
</g>
<!-- [root] module.iam_role_for_ec2_to_cloud_watch.var.aws_iam_role_policy -->
<g id="node10" class="node">
<title>[root] module.iam_role_for_ec2_to_cloud_watch.var.aws_iam_role_policy</title>
<ellipse fill="none" stroke="#000000" cx="467.0589" cy="-162" rx="276.1353" ry="18"/>
<text text-anchor="middle" x="467.0589" y="-157.8" font-family="Times,serif" font-size="14.00" fill="#000000">[root] module.iam_role_for_ec2_to_cloud_watch.var.aws_iam_role_policy</text>
</g>
<!-- [root] module.iam_role_for_ec2_to_cloud_watch.aws_iam_role_policy.iam_role_policy_m&#45;&gt;[root] module.iam_role_for_ec2_to_cloud_watch.var.aws_iam_role_policy -->
<g id="edge11" class="edge">
<title>[root] module.iam_role_for_ec2_to_cloud_watch.aws_iam_role_policy.iam_role_policy_m&#45;&gt;[root] module.iam_role_for_ec2_to_cloud_watch.var.aws_iam_role_policy</title>
<path fill="none" stroke="#000000" d="M467.0589,-215.8314C467.0589,-208.131 467.0589,-198.9743 467.0589,-190.4166"/>
<polygon fill="#000000" stroke="#000000" points="470.559,-190.4132 467.0589,-180.4133 463.559,-190.4133 470.559,-190.4132"/>
</g>
<!-- [root] meta.count&#45;boundary (count boundary fixup) -->
<g id="node7" class="node">
<title>[root] meta.count&#45;boundary (count boundary fixup)</title>
<ellipse fill="none" stroke="#000000" cx="710.0589" cy="-306" rx="191.6931" ry="18"/>
<text text-anchor="middle" x="710.0589" y="-301.8" font-family="Times,serif" font-size="14.00" fill="#000000">[root] meta.count&#45;boundary (count boundary fixup)</text>
</g>
<!-- [root] meta.count&#45;boundary (count boundary fixup)&#45;&gt;[root] aws_instance.centos -->
<g id="edge3" class="edge">
<title>[root] meta.count&#45;boundary (count boundary fixup)&#45;&gt;[root] aws_instance.centos</title>
<path fill="none" stroke="#000000" d="M574.1293,-293.3077C456.1507,-281.9383 293.1648,-265.2937 212.664,-252.1201"/>
<polygon fill="#000000" stroke="#000000" points="212.7759,-248.5892 202.3314,-250.3675 211.6053,-255.4906 212.7759,-248.5892"/>
</g>
<!-- [root] meta.count&#45;boundary (count boundary fixup)&#45;&gt;[root] module.iam_role_for_ec2_to_cloud_watch.aws_iam_instance_profile.iam_instance_profile_m -->
<g id="edge4" class="edge">
<title>[root] meta.count&#45;boundary (count boundary fixup)&#45;&gt;[root] module.iam_role_for_ec2_to_cloud_watch.aws_iam_instance_profile.iam_instance_profile_m</title>
<path fill="none" stroke="#000000" d="M779.2233,-289.1192C821.7435,-278.7414 876.4988,-265.3774 921.4445,-254.4076"/>
<polygon fill="#000000" stroke="#000000" points="922.2862,-257.805 931.1711,-252.0336 920.6264,-251.0046 922.2862,-257.805"/>
</g>
<!-- [root] meta.count&#45;boundary (count boundary fixup)&#45;&gt;[root] module.iam_role_for_ec2_to_cloud_watch.aws_iam_role_policy.iam_role_policy_m -->
<g id="edge5" class="edge">
<title>[root] meta.count&#45;boundary (count boundary fixup)&#45;&gt;[root] module.iam_role_for_ec2_to_cloud_watch.aws_iam_role_policy.iam_role_policy_m</title>
<path fill="none" stroke="#000000" d="M651.8544,-288.7542C617.7152,-278.6389 574.3263,-265.7829 538.1715,-255.0704"/>
<polygon fill="#000000" stroke="#000000" points="538.7619,-251.595 528.1795,-252.1098 536.7732,-258.3066 538.7619,-251.595"/>
</g>
<!-- [root] module.iam_role_for_ec2_to_cloud_watch.var.role_purpose&#45;&gt;[root] var.role_purpose -->
<g id="edge12" class="edge">
<title>[root] module.iam_role_for_ec2_to_cloud_watch.var.role_purpose&#45;&gt;[root] var.role_purpose</title>
<path fill="none" stroke="#000000" d="M1021.6695,-73.9762C928.3885,-60.6767 797.7776,-42.0549 713.2934,-30.0097"/>
<polygon fill="#000000" stroke="#000000" points="713.6187,-26.5207 703.2248,-28.5741 712.6306,-33.4507 713.6187,-26.5207"/>
</g>
<!-- [root] provider.aws (close) -->
<g id="node11" class="node">
<title>[root] provider.aws (close)</title>
<ellipse fill="none" stroke="#000000" cx="396.0589" cy="-306" rx="104.3276" ry="18"/>
<text text-anchor="middle" x="396.0589" y="-301.8" font-family="Times,serif" font-size="14.00" fill="#000000">[root] provider.aws (close)</text>
</g>
<!-- [root] provider.aws (close)&#45;&gt;[root] aws_instance.centos -->
<g id="edge13" class="edge">
<title>[root] provider.aws (close)&#45;&gt;[root] aws_instance.centos</title>
<path fill="none" stroke="#000000" d="M340.8146,-290.6425C303.1289,-280.1662 252.7715,-266.1672 211.5487,-254.7076"/>
<polygon fill="#000000" stroke="#000000" points="212.3938,-251.3099 201.8217,-252.0036 210.5189,-258.0541 212.3938,-251.3099"/>
</g>
<!-- [root] provider.aws (close)&#45;&gt;[root] module.iam_role_for_ec2_to_cloud_watch.aws_iam_instance_profile.iam_instance_profile_m -->
<g id="edge14" class="edge">
<title>[root] provider.aws (close)&#45;&gt;[root] module.iam_role_for_ec2_to_cloud_watch.aws_iam_instance_profile.iam_instance_profile_m</title>
<path fill="none" stroke="#000000" d="M471.3539,-293.4741C483.929,-291.535 496.8515,-289.6358 509.0589,-288 607.7389,-274.7771 717.7956,-262.5421 809.12,-253.0736"/>
<polygon fill="#000000" stroke="#000000" points="809.7228,-256.5301 819.31,-252.0205 809.0031,-249.5671 809.7228,-256.5301"/>
</g>
<!-- [root] provider.aws (close)&#45;&gt;[root] module.iam_role_for_ec2_to_cloud_watch.aws_iam_role_policy.iam_role_policy_m -->
<g id="edge15" class="edge">
<title>[root] provider.aws (close)&#45;&gt;[root] module.iam_role_for_ec2_to_cloud_watch.aws_iam_role_policy.iam_role_policy_m</title>
<path fill="none" stroke="#000000" d="M413.6095,-288.2022C422.1638,-279.5275 432.605,-268.9391 441.9818,-259.4304"/>
<polygon fill="#000000" stroke="#000000" points="444.6877,-261.671 449.2171,-252.0931 439.7035,-256.756 444.6877,-261.671"/>
</g>
<!-- [root] provisioner.local&#45;exec (close) -->
<g id="node12" class="node">
<title>[root] provisioner.local&#45;exec (close)</title>
<ellipse fill="none" stroke="#000000" cx="137.0589" cy="-306" rx="137.1179" ry="18"/>
<text text-anchor="middle" x="137.0589" y="-301.8" font-family="Times,serif" font-size="14.00" fill="#000000">[root] provisioner.local&#45;exec (close)</text>
</g>
<!-- [root] provisioner.local&#45;exec (close)&#45;&gt;[root] aws_instance.centos -->
<g id="edge16" class="edge">
<title>[root] provisioner.local&#45;exec (close)&#45;&gt;[root] aws_instance.centos</title>
<path fill="none" stroke="#000000" d="M137.0589,-287.8314C137.0589,-280.131 137.0589,-270.9743 137.0589,-262.4166"/>
<polygon fill="#000000" stroke="#000000" points="140.559,-262.4132 137.0589,-252.4133 133.559,-262.4133 140.559,-262.4132"/>
</g>
<!-- [root] root -->
<g id="node13" class="node">
<title>[root] root</title>
<ellipse fill="none" stroke="#000000" cx="396.0589" cy="-378" rx="46.8976" ry="18"/>
<text text-anchor="middle" x="396.0589" y="-373.8" font-family="Times,serif" font-size="14.00" fill="#000000">[root] root</text>
</g>
<!-- [root] root&#45;&gt;[root] meta.count&#45;boundary (count boundary fixup) -->
<g id="edge17" class="edge">
<title>[root] root&#45;&gt;[root] meta.count&#45;boundary (count boundary fixup)</title>
<path fill="none" stroke="#000000" d="M436.4661,-368.7347C484.3999,-357.7435 565.5519,-339.1354 627.058,-325.0321"/>
<polygon fill="#000000" stroke="#000000" points="628.1736,-328.3672 637.1383,-322.7206 626.609,-321.5442 628.1736,-328.3672"/>
</g>
<!-- [root] root&#45;&gt;[root] provider.aws (close) -->
<g id="edge18" class="edge">
<title>[root] root&#45;&gt;[root] provider.aws (close)</title>
<path fill="none" stroke="#000000" d="M396.0589,-359.8314C396.0589,-352.131 396.0589,-342.9743 396.0589,-334.4166"/>
<polygon fill="#000000" stroke="#000000" points="399.559,-334.4132 396.0589,-324.4133 392.559,-334.4133 399.559,-334.4132"/>
</g>
<!-- [root] root&#45;&gt;[root] provisioner.local&#45;exec (close) -->
<g id="edge19" class="edge">
<title>[root] root&#45;&gt;[root] provisioner.local&#45;exec (close)</title>
<path fill="none" stroke="#000000" d="M358.1207,-367.4535C318.1596,-356.3446 254.3831,-338.6152 205.5796,-325.0482"/>
<polygon fill="#000000" stroke="#000000" points="206.2909,-321.6133 195.7188,-322.307 204.416,-328.3575 206.2909,-321.6133"/>
</g>
</g>
</svg>
