<?xml version="1.0" encoding="UTF-8" standalone="no"?>
<!DOCTYPE svg PUBLIC "-//W3C//DTD SVG 1.1//EN"
 "http://www.w3.org/Graphics/SVG/1.1/DTD/svg11.dtd">
<!-- Generated by graphviz version 2.40.1 (20161225.0304)
 -->
<!-- Title: %3 Pages: 1 -->
<svg width="1066pt" height="476pt"
 viewBox="0.00 0.00 1066.40 476.00" xmlns="http://www.w3.org/2000/svg" xmlns:xlink="http://www.w3.org/1999/xlink">
<g id="graph0" class="graph" transform="scale(1 1) rotate(0) translate(4 472)">
<title>%3</title>
<polygon fill="#ffffff" stroke="transparent" points="-4,4 -4,-472 1062.4043,-472 1062.4043,4 -4,4"/>
<!-- [root] aws_subnet.back -->
<g id="node1" class="node">
<title>[root] aws_subnet.back</title>
<polygon fill="none" stroke="#000000" points="883.9929,-252 772.4884,-252 772.4884,-216 883.9929,-216 883.9929,-252"/>
<text text-anchor="middle" x="828.2407" y="-229.8" font-family="Times,serif" font-size="14.00" fill="#000000">aws_subnet.back</text>
</g>
<!-- [root] aws_vpc.dev -->
<g id="node3" class="node">
<title>[root] aws_vpc.dev</title>
<polygon fill="none" stroke="#000000" points="807.4414,-180 719.04,-180 719.04,-144 807.4414,-144 807.4414,-180"/>
<text text-anchor="middle" x="763.2407" y="-157.8" font-family="Times,serif" font-size="14.00" fill="#000000">aws_vpc.dev</text>
</g>
<!-- [root] aws_subnet.back&#45;&gt;[root] aws_vpc.dev -->
<g id="edge1" class="edge">
<title>[root] aws_subnet.back&#45;&gt;[root] aws_vpc.dev</title>
<path fill="none" stroke="#000000" d="M811.8384,-215.8314C804.1991,-207.3694 794.9723,-197.1489 786.62,-187.8971"/>
<polygon fill="#000000" stroke="#000000" points="789.1628,-185.4906 779.8638,-180.4133 783.9669,-190.1813 789.1628,-185.4906"/>
</g>
<!-- [root] aws_subnet.front -->
<g id="node2" class="node">
<title>[root] aws_subnet.front</title>
<polygon fill="none" stroke="#000000" points="754.2788,-252 642.2026,-252 642.2026,-216 754.2788,-216 754.2788,-252"/>
<text text-anchor="middle" x="698.2407" y="-229.8" font-family="Times,serif" font-size="14.00" fill="#000000">aws_subnet.front</text>
</g>
<!-- [root] aws_subnet.front&#45;&gt;[root] aws_vpc.dev -->
<g id="edge2" class="edge">
<title>[root] aws_subnet.front&#45;&gt;[root] aws_vpc.dev</title>
<path fill="none" stroke="#000000" d="M714.6429,-215.8314C722.2822,-207.3694 731.509,-197.1489 739.8613,-187.8971"/>
<polygon fill="#000000" stroke="#000000" points="742.5145,-190.1813 746.6176,-180.4133 737.3186,-185.4906 742.5145,-190.1813"/>
</g>
<!-- [root] provider.aws -->
<g id="node4" class="node">
<title>[root] provider.aws</title>
<polygon fill="none" stroke="#000000" points="676.2407,-108 597.6323,-90 676.2407,-72 754.849,-90 676.2407,-108"/>
<text text-anchor="middle" x="676.2407" y="-85.8" font-family="Times,serif" font-size="14.00" fill="#000000">provider.aws</text>
</g>
<!-- [root] aws_vpc.dev&#45;&gt;[root] provider.aws -->
<g id="edge3" class="edge">
<title>[root] aws_vpc.dev&#45;&gt;[root] provider.aws</title>
<path fill="none" stroke="#000000" d="M741.2869,-143.8314C729.1468,-133.7844 714.0113,-121.2585 701.3959,-110.8182"/>
<polygon fill="#000000" stroke="#000000" points="703.462,-107.9849 693.5266,-104.3056 698.999,-113.3777 703.462,-107.9849"/>
</g>
<!-- [root] var.tag&#45;name -->
<g id="node5" class="node">
<title>[root] var.tag&#45;name</title>
<ellipse fill="none" stroke="#000000" cx="851.2407" cy="-90" rx="78.2435" ry="18"/>
<text text-anchor="middle" x="851.2407" y="-85.8" font-family="Times,serif" font-size="14.00" fill="#000000">[root] var.tag&#45;name</text>
</g>
<!-- [root] aws_vpc.dev&#45;&gt;[root] var.tag&#45;name -->
<g id="edge4" class="edge">
<title>[root] aws_vpc.dev&#45;&gt;[root] var.tag&#45;name</title>
<path fill="none" stroke="#000000" d="M785.4468,-143.8314C796.5339,-134.7601 810.0908,-123.668 822.0115,-113.9148"/>
<polygon fill="#000000" stroke="#000000" points="824.4291,-116.459 829.9524,-107.4177 819.9964,-111.0413 824.4291,-116.459"/>
</g>
<!-- [root] var.region -->
<g id="node12" class="node">
<title>[root] var.region</title>
<ellipse fill="none" stroke="#000000" cx="676.2407" cy="-18" rx="68.1287" ry="18"/>
<text text-anchor="middle" x="676.2407" y="-13.8" font-family="Times,serif" font-size="14.00" fill="#000000">[root] var.region</text>
</g>
<!-- [root] provider.aws&#45;&gt;[root] var.region -->
<g id="edge13" class="edge">
<title>[root] provider.aws&#45;&gt;[root] var.region</title>
<path fill="none" stroke="#000000" d="M676.2407,-71.8314C676.2407,-64.131 676.2407,-54.9743 676.2407,-46.4166"/>
<polygon fill="#000000" stroke="#000000" points="679.7408,-46.4132 676.2407,-36.4133 672.7408,-46.4133 679.7408,-46.4132"/>
</g>
<!-- [root] meta.count&#45;boundary (count boundary fixup) -->
<g id="node6" class="node">
<title>[root] meta.count&#45;boundary (count boundary fixup)</title>
<ellipse fill="none" stroke="#000000" cx="424.2407" cy="-378" rx="191.6931" ry="18"/>
<text text-anchor="middle" x="424.2407" y="-373.8" font-family="Times,serif" font-size="14.00" fill="#000000">[root] meta.count&#45;boundary (count boundary fixup)</text>
</g>
<!-- [root] output.vpc_subnet_back_id -->
<g id="node7" class="node">
<title>[root] output.vpc_subnet_back_id</title>
<ellipse fill="none" stroke="#000000" cx="702.2407" cy="-306" rx="129.9199" ry="18"/>
<text text-anchor="middle" x="702.2407" y="-301.8" font-family="Times,serif" font-size="14.00" fill="#000000">[root] output.vpc_subnet_back_id</text>
</g>
<!-- [root] meta.count&#45;boundary (count boundary fixup)&#45;&gt;[root] output.vpc_subnet_back_id -->
<g id="edge5" class="edge">
<title>[root] meta.count&#45;boundary (count boundary fixup)&#45;&gt;[root] output.vpc_subnet_back_id</title>
<path fill="none" stroke="#000000" d="M489.7708,-361.0282C532.0654,-350.0742 587.0956,-335.8217 630.5535,-324.5665"/>
<polygon fill="#000000" stroke="#000000" points="631.6838,-327.8893 640.4868,-321.9938 629.9287,-321.1129 631.6838,-327.8893"/>
</g>
<!-- [root] output.vpc_subnet_front_id -->
<g id="node8" class="node">
<title>[root] output.vpc_subnet_front_id</title>
<ellipse fill="none" stroke="#000000" cx="424.2407" cy="-306" rx="130.4131" ry="18"/>
<text text-anchor="middle" x="424.2407" y="-301.8" font-family="Times,serif" font-size="14.00" fill="#000000">[root] output.vpc_subnet_front_id</text>
</g>
<!-- [root] meta.count&#45;boundary (count boundary fixup)&#45;&gt;[root] output.vpc_subnet_front_id -->
<g id="edge6" class="edge">
<title>[root] meta.count&#45;boundary (count boundary fixup)&#45;&gt;[root] output.vpc_subnet_front_id</title>
<path fill="none" stroke="#000000" d="M424.2407,-359.8314C424.2407,-352.131 424.2407,-342.9743 424.2407,-334.4166"/>
<polygon fill="#000000" stroke="#000000" points="427.7408,-334.4132 424.2407,-324.4133 420.7408,-334.4133 427.7408,-334.4132"/>
</g>
<!-- [root] var.env -->
<g id="node9" class="node">
<title>[root] var.env</title>
<ellipse fill="none" stroke="#000000" cx="58.2407" cy="-306" rx="58.4823" ry="18"/>
<text text-anchor="middle" x="58.2407" y="-301.8" font-family="Times,serif" font-size="14.00" fill="#000000">[root] var.env</text>
</g>
<!-- [root] meta.count&#45;boundary (count boundary fixup)&#45;&gt;[root] var.env -->
<g id="edge7" class="edge">
<title>[root] meta.count&#45;boundary (count boundary fixup)&#45;&gt;[root] var.env</title>
<path fill="none" stroke="#000000" d="M326.5344,-362.4793C267.9199,-352.641 192.025,-338.9741 125.2407,-324 120.6351,-322.9674 115.8696,-321.8291 111.101,-320.6417"/>
<polygon fill="#000000" stroke="#000000" points="111.9139,-317.237 101.3588,-318.1536 110.1817,-324.0194 111.9139,-317.237"/>
</g>
<!-- [root] var.service -->
<g id="node10" class="node">
<title>[root] var.service</title>
<ellipse fill="none" stroke="#000000" cx="205.2407" cy="-306" rx="70.5254" ry="18"/>
<text text-anchor="middle" x="205.2407" y="-301.8" font-family="Times,serif" font-size="14.00" fill="#000000">[root] var.service</text>
</g>
<!-- [root] meta.count&#45;boundary (count boundary fixup)&#45;&gt;[root] var.service -->
<g id="edge8" class="edge">
<title>[root] meta.count&#45;boundary (count boundary fixup)&#45;&gt;[root] var.service</title>
<path fill="none" stroke="#000000" d="M371.506,-360.6626C337.2931,-349.4145 292.861,-334.8067 258.537,-323.5221"/>
<polygon fill="#000000" stroke="#000000" points="259.2804,-320.0822 248.6875,-320.2839 257.0941,-326.7321 259.2804,-320.0822"/>
</g>
<!-- [root] output.vpc_subnet_back_id&#45;&gt;[root] aws_subnet.back -->
<g id="edge9" class="edge">
<title>[root] output.vpc_subnet_back_id&#45;&gt;[root] aws_subnet.back</title>
<path fill="none" stroke="#000000" d="M733.0637,-288.3868C749.4426,-279.0275 769.7878,-267.4016 787.4585,-257.3041"/>
<polygon fill="#000000" stroke="#000000" points="789.4742,-260.1835 796.4201,-252.1832 786.0012,-254.1058 789.4742,-260.1835"/>
</g>
<!-- [root] output.vpc_subnet_front_id&#45;&gt;[root] aws_subnet.front -->
<g id="edge10" class="edge">
<title>[root] output.vpc_subnet_front_id&#45;&gt;[root] aws_subnet.front</title>
<path fill="none" stroke="#000000" d="M485.0501,-290.0209C528.5832,-278.5815 587.1655,-263.1876 631.9043,-251.4314"/>
<polygon fill="#000000" stroke="#000000" points="633.023,-254.7564 641.8051,-248.8298 631.2439,-247.9862 633.023,-254.7564"/>
</g>
<!-- [root] provider.aws (close) -->
<g id="node11" class="node">
<title>[root] provider.aws (close)</title>
<ellipse fill="none" stroke="#000000" cx="954.2407" cy="-306" rx="104.3276" ry="18"/>
<text text-anchor="middle" x="954.2407" y="-301.8" font-family="Times,serif" font-size="14.00" fill="#000000">[root] provider.aws (close)</text>
</g>
<!-- [root] provider.aws (close)&#45;&gt;[root] aws_subnet.back -->
<g id="edge11" class="edge">
<title>[root] provider.aws (close)&#45;&gt;[root] aws_subnet.back</title>
<path fill="none" stroke="#000000" d="M924.0605,-288.7542C907.5691,-279.3306 886.915,-267.5282 869.0093,-257.2963"/>
<polygon fill="#000000" stroke="#000000" points="870.3518,-254.0324 859.9328,-252.1098 866.8788,-260.1101 870.3518,-254.0324"/>
</g>
<!-- [root] provider.aws (close)&#45;&gt;[root] aws_subnet.front -->
<g id="edge12" class="edge">
<title>[root] provider.aws (close)&#45;&gt;[root] aws_subnet.front</title>
<path fill="none" stroke="#000000" d="M899.6362,-290.6425C860.076,-279.5162 806.3884,-264.4165 764.3931,-252.6054"/>
<polygon fill="#000000" stroke="#000000" points="765.1058,-249.1701 754.5317,-249.8318 763.2106,-255.9087 765.1058,-249.1701"/>
</g>
<!-- [root] root -->
<g id="node13" class="node">
<title>[root] root</title>
<ellipse fill="none" stroke="#000000" cx="534.2407" cy="-450" rx="46.8976" ry="18"/>
<text text-anchor="middle" x="534.2407" y="-445.8" font-family="Times,serif" font-size="14.00" fill="#000000">[root] root</text>
</g>
<!-- [root] root&#45;&gt;[root] meta.count&#45;boundary (count boundary fixup) -->
<g id="edge14" class="edge">
<title>[root] root&#45;&gt;[root] meta.count&#45;boundary (count boundary fixup)</title>
<path fill="none" stroke="#000000" d="M510.3723,-434.3771C495.7642,-424.8154 476.7872,-412.3941 460.3652,-401.6452"/>
<polygon fill="#000000" stroke="#000000" points="461.8326,-398.4225 451.5487,-395.8744 457.9989,-404.2794 461.8326,-398.4225"/>
</g>
<!-- [root] root&#45;&gt;[root] provider.aws (close) -->
<g id="edge15" class="edge">
<title>[root] root&#45;&gt;[root] provider.aws (close)</title>
<path fill="none" stroke="#000000" d="M569.3272,-437.9703C642.0137,-413.0492 809.6021,-355.5904 897.7304,-325.3749"/>
<polygon fill="#000000" stroke="#000000" points="898.973,-328.649 907.2973,-322.0949 896.7027,-322.0274 898.973,-328.649"/>
</g>
</g>
</svg>
