<?xml version="1.0" encoding="UTF-8" standalone="no"?>
<!DOCTYPE svg PUBLIC "-//W3C//DTD SVG 1.1//EN"
 "http://www.w3.org/Graphics/SVG/1.1/DTD/svg11.dtd">
<!-- Generated by graphviz version 2.40.1 (20161225.0304)
 -->
<!-- Title: %3 Pages: 1 -->
<svg width="565pt" height="476pt"
 viewBox="0.00 0.00 564.96 476.00" xmlns="http://www.w3.org/2000/svg" xmlns:xlink="http://www.w3.org/1999/xlink">
<g id="graph0" class="graph" transform="scale(1 1) rotate(0) translate(4 472)">
<title>%3</title>
<polygon fill="#ffffff" stroke="transparent" points="-4,4 -4,-472 560.9571,-472 560.9571,4 -4,4"/>
<!-- [root] aws_instance.my_ec2 -->
<g id="node1" class="node">
<title>[root] aws_instance.my_ec2</title>
<polygon fill="none" stroke="#000000" points="413.2532,-252 274.3337,-252 274.3337,-216 413.2532,-216 413.2532,-252"/>
<text text-anchor="middle" x="343.7935" y="-229.8" font-family="Times,serif" font-size="14.00" fill="#000000">aws_instance.my_ec2</text>
</g>
<!-- [root] aws_security_group.web_app_sg -->
<g id="node2" class="node">
<title>[root] aws_security_group.web_app_sg</title>
<polygon fill="none" stroke="#000000" points="351.0319,-180 148.555,-180 148.555,-144 351.0319,-144 351.0319,-180"/>
<text text-anchor="middle" x="249.7935" y="-157.8" font-family="Times,serif" font-size="14.00" fill="#000000">aws_security_group.web_app_sg</text>
</g>
<!-- [root] aws_instance.my_ec2&#45;&gt;[root] aws_security_group.web_app_sg -->
<g id="edge1" class="edge">
<title>[root] aws_instance.my_ec2&#45;&gt;[root] aws_security_group.web_app_sg</title>
<path fill="none" stroke="#000000" d="M320.0733,-215.8314C308.3841,-206.8779 294.1247,-195.9558 281.5126,-186.2955"/>
<polygon fill="#000000" stroke="#000000" points="283.5731,-183.4651 273.506,-180.1628 279.3166,-189.0222 283.5731,-183.4651"/>
</g>
<!-- [root] var.distros -->
<g id="node5" class="node">
<title>[root] var.distros</title>
<ellipse fill="none" stroke="#000000" cx="437.7935" cy="-162" rx="69.1151" ry="18"/>
<text text-anchor="middle" x="437.7935" y="-157.8" font-family="Times,serif" font-size="14.00" fill="#000000">[root] var.distros</text>
</g>
<!-- [root] aws_instance.my_ec2&#45;&gt;[root] var.distros -->
<g id="edge2" class="edge">
<title>[root] aws_instance.my_ec2&#45;&gt;[root] var.distros</title>
<path fill="none" stroke="#000000" d="M367.5136,-215.8314C379.5597,-206.6045 394.3354,-195.287 407.2249,-185.4142"/>
<polygon fill="#000000" stroke="#000000" points="409.5646,-188.0308 415.3752,-179.1715 405.3081,-182.4737 409.5646,-188.0308"/>
</g>
<!-- [root] data.aws_ip_ranges.eu&#45;west_regiions_ec2 -->
<g id="node3" class="node">
<title>[root] data.aws_ip_ranges.eu&#45;west_regiions_ec2</title>
<polygon fill="none" stroke="#000000" points="251.3807,-108 .2062,-108 .2062,-72 251.3807,-72 251.3807,-108"/>
<text text-anchor="middle" x="125.7935" y="-85.8" font-family="Times,serif" font-size="14.00" fill="#000000">data.aws_ip_ranges.eu&#45;west_regiions_ec2</text>
</g>
<!-- [root] aws_security_group.web_app_sg&#45;&gt;[root] data.aws_ip_ranges.eu&#45;west_regiions_ec2 -->
<g id="edge3" class="edge">
<title>[root] aws_security_group.web_app_sg&#45;&gt;[root] data.aws_ip_ranges.eu&#45;west_regiions_ec2</title>
<path fill="none" stroke="#000000" d="M218.503,-143.8314C202.4958,-134.5368 182.8349,-123.1208 165.744,-113.1971"/>
<polygon fill="#000000" stroke="#000000" points="167.4793,-110.1575 157.0739,-108.1628 163.9643,-116.211 167.4793,-110.1575"/>
</g>
<!-- [root] var.web_server_port -->
<g id="node6" class="node">
<title>[root] var.web_server_port</title>
<ellipse fill="none" stroke="#000000" cx="374.7935" cy="-90" rx="104.7955" ry="18"/>
<text text-anchor="middle" x="374.7935" y="-85.8" font-family="Times,serif" font-size="14.00" fill="#000000">[root] var.web_server_port</text>
</g>
<!-- [root] aws_security_group.web_app_sg&#45;&gt;[root] var.web_server_port -->
<g id="edge4" class="edge">
<title>[root] aws_security_group.web_app_sg&#45;&gt;[root] var.web_server_port</title>
<path fill="none" stroke="#000000" d="M281.3362,-143.8314C297.8421,-134.324 318.2017,-122.5968 335.7002,-112.5177"/>
<polygon fill="#000000" stroke="#000000" points="337.636,-115.4418 344.5544,-107.4177 334.1421,-109.3761 337.636,-115.4418"/>
</g>
<!-- [root] provider.aws -->
<g id="node4" class="node">
<title>[root] provider.aws</title>
<polygon fill="none" stroke="#000000" points="125.7935,-36 47.1851,-18 125.7935,0 204.4018,-18 125.7935,-36"/>
<text text-anchor="middle" x="125.7935" y="-13.8" font-family="Times,serif" font-size="14.00" fill="#000000">provider.aws</text>
</g>
<!-- [root] data.aws_ip_ranges.eu&#45;west_regiions_ec2&#45;&gt;[root] provider.aws -->
<g id="edge5" class="edge">
<title>[root] data.aws_ip_ranges.eu&#45;west_regiions_ec2&#45;&gt;[root] provider.aws</title>
<path fill="none" stroke="#000000" d="M125.7935,-71.8314C125.7935,-64.131 125.7935,-54.9743 125.7935,-46.4166"/>
<polygon fill="#000000" stroke="#000000" points="129.2936,-46.4132 125.7935,-36.4133 122.2936,-46.4133 129.2936,-46.4132"/>
</g>
<!-- [root] meta.count&#45;boundary (count boundary fixup) -->
<g id="node7" class="node">
<title>[root] meta.count&#45;boundary (count boundary fixup)</title>
<ellipse fill="none" stroke="#000000" cx="234.7935" cy="-378" rx="191.6931" ry="18"/>
<text text-anchor="middle" x="234.7935" y="-373.8" font-family="Times,serif" font-size="14.00" fill="#000000">[root] meta.count&#45;boundary (count boundary fixup)</text>
</g>
<!-- [root] output.public_ip -->
<g id="node8" class="node">
<title>[root] output.public_ip</title>
<ellipse fill="none" stroke="#000000" cx="237.7935" cy="-306" rx="90.8395" ry="18"/>
<text text-anchor="middle" x="237.7935" y="-301.8" font-family="Times,serif" font-size="14.00" fill="#000000">[root] output.public_ip</text>
</g>
<!-- [root] meta.count&#45;boundary (count boundary fixup)&#45;&gt;[root] output.public_ip -->
<g id="edge6" class="edge">
<title>[root] meta.count&#45;boundary (count boundary fixup)&#45;&gt;[root] output.public_ip</title>
<path fill="none" stroke="#000000" d="M235.5505,-359.8314C235.8713,-352.131 236.2529,-342.9743 236.6094,-334.4166"/>
<polygon fill="#000000" stroke="#000000" points="240.1068,-334.5503 237.0262,-324.4133 233.1129,-334.2589 240.1068,-334.5503"/>
</g>
<!-- [root] output.public_ip&#45;&gt;[root] aws_instance.my_ec2 -->
<g id="edge7" class="edge">
<title>[root] output.public_ip&#45;&gt;[root] aws_instance.my_ec2</title>
<path fill="none" stroke="#000000" d="M263.4531,-288.5708C277.0774,-279.3166 294.021,-267.8077 308.831,-257.7481"/>
<polygon fill="#000000" stroke="#000000" points="310.9576,-260.5347 317.2631,-252.0206 307.0244,-254.7442 310.9576,-260.5347"/>
</g>
<!-- [root] provider.aws (close) -->
<g id="node9" class="node">
<title>[root] provider.aws (close)</title>
<ellipse fill="none" stroke="#000000" cx="452.7935" cy="-306" rx="104.3276" ry="18"/>
<text text-anchor="middle" x="452.7935" y="-301.8" font-family="Times,serif" font-size="14.00" fill="#000000">[root] provider.aws (close)</text>
</g>
<!-- [root] provider.aws (close)&#45;&gt;[root] aws_instance.my_ec2 -->
<g id="edge8" class="edge">
<title>[root] provider.aws (close)&#45;&gt;[root] aws_instance.my_ec2</title>
<path fill="none" stroke="#000000" d="M426.4076,-288.5708C412.3977,-279.3166 394.9746,-267.8077 379.7454,-257.7481"/>
<polygon fill="#000000" stroke="#000000" points="381.3477,-254.6119 371.0746,-252.0206 377.4895,-260.4527 381.3477,-254.6119"/>
</g>
<!-- [root] root -->
<g id="node10" class="node">
<title>[root] root</title>
<ellipse fill="none" stroke="#000000" cx="344.7935" cy="-450" rx="46.8976" ry="18"/>
<text text-anchor="middle" x="344.7935" y="-445.8" font-family="Times,serif" font-size="14.00" fill="#000000">[root] root</text>
</g>
<!-- [root] root&#45;&gt;[root] meta.count&#45;boundary (count boundary fixup) -->
<g id="edge9" class="edge">
<title>[root] root&#45;&gt;[root] meta.count&#45;boundary (count boundary fixup)</title>
<path fill="none" stroke="#000000" d="M320.9251,-434.3771C306.317,-424.8154 287.34,-412.3941 270.918,-401.6452"/>
<polygon fill="#000000" stroke="#000000" points="272.3853,-398.4225 262.1015,-395.8744 268.5517,-404.2794 272.3853,-398.4225"/>
</g>
<!-- [root] root&#45;&gt;[root] provider.aws (close) -->
<g id="edge10" class="edge">
<title>[root] root&#45;&gt;[root] provider.aws (close)</title>
<path fill="none" stroke="#000000" d="M379.2706,-437.8491C398.8409,-429.1812 422.0933,-415.5617 435.7935,-396 448.3574,-378.0605 452.323,-353.3725 453.3055,-334.3906"/>
<polygon fill="#000000" stroke="#000000" points="456.8083,-334.3314 453.5811,-324.24 449.8109,-334.1413 456.8083,-334.3314"/>
</g>
</g>
</svg>
