<?xml version="1.0" encoding="UTF-8" standalone="no"?>
<!DOCTYPE svg PUBLIC "-//W3C//DTD SVG 1.1//EN"
 "http://www.w3.org/Graphics/SVG/1.1/DTD/svg11.dtd">
<!-- Generated by graphviz version 2.40.1 (20161225.0304)
 -->
<!-- Title: %3 Pages: 1 -->
<svg width="820pt" height="404pt"
 viewBox="0.00 0.00 819.59 404.00" xmlns="http://www.w3.org/2000/svg" xmlns:xlink="http://www.w3.org/1999/xlink">
<g id="graph0" class="graph" transform="scale(1 1) rotate(0) translate(4 400)">
<title>%3</title>
<polygon fill="#ffffff" stroke="transparent" points="-4,4 -4,-400 815.5884,-400 815.5884,4 -4,4"/>
<!-- [root] aws_autoscaling_group.my_ec2_asg -->
<g id="node1" class="node">
<title>[root] aws_autoscaling_group.my_ec2_asg</title>
<polygon fill="none" stroke="#000000" points="388.7922,-252 167.446,-252 167.446,-216 388.7922,-216 388.7922,-252"/>
<text text-anchor="middle" x="278.1191" y="-229.8" font-family="Times,serif" font-size="14.00" fill="#000000">aws_autoscaling_group.my_ec2_asg</text>
</g>
<!-- [root] aws_elb.webappelb -->
<g id="node2" class="node">
<title>[root] aws_elb.webappelb</title>
<polygon fill="none" stroke="#000000" points="563.1367,-180 437.1016,-180 437.1016,-144 563.1367,-144 563.1367,-180"/>
<text text-anchor="middle" x="500.1191" y="-157.8" font-family="Times,serif" font-size="14.00" fill="#000000">aws_elb.webappelb</text>
</g>
<!-- [root] aws_autoscaling_group.my_ec2_asg&#45;&gt;[root] aws_elb.webappelb -->
<g id="edge1" class="edge">
<title>[root] aws_autoscaling_group.my_ec2_asg&#45;&gt;[root] aws_elb.webappelb</title>
<path fill="none" stroke="#000000" d="M333.8526,-215.9243C364.4652,-205.9959 402.6072,-193.6255 434.6346,-183.2382"/>
<polygon fill="#000000" stroke="#000000" points="435.9303,-186.4975 444.3628,-180.0831 433.7708,-179.839 435.9303,-186.4975"/>
</g>
<!-- [root] aws_launch_configuration.my_ec2_asg_lc -->
<g id="node3" class="node">
<title>[root] aws_launch_configuration.my_ec2_asg_lc</title>
<polygon fill="none" stroke="#000000" points="405.4475,-180 150.7908,-180 150.7908,-144 405.4475,-144 405.4475,-180"/>
<text text-anchor="middle" x="278.1191" y="-157.8" font-family="Times,serif" font-size="14.00" fill="#000000">aws_launch_configuration.my_ec2_asg_lc</text>
</g>
<!-- [root] aws_autoscaling_group.my_ec2_asg&#45;&gt;[root] aws_launch_configuration.my_ec2_asg_lc -->
<g id="edge2" class="edge">
<title>[root] aws_autoscaling_group.my_ec2_asg&#45;&gt;[root] aws_launch_configuration.my_ec2_asg_lc</title>
<path fill="none" stroke="#000000" d="M278.1191,-215.8314C278.1191,-208.131 278.1191,-198.9743 278.1191,-190.4166"/>
<polygon fill="#000000" stroke="#000000" points="281.6192,-190.4132 278.1191,-180.4133 274.6192,-190.4133 281.6192,-190.4132"/>
</g>
<!-- [root] aws_security_group.web_app_elb_sg -->
<g id="node4" class="node">
<title>[root] aws_security_group.web_app_elb_sg</title>
<polygon fill="none" stroke="#000000" points="602.4612,-108 375.7771,-108 375.7771,-72 602.4612,-72 602.4612,-108"/>
<text text-anchor="middle" x="489.1191" y="-85.8" font-family="Times,serif" font-size="14.00" fill="#000000">aws_security_group.web_app_elb_sg</text>
</g>
<!-- [root] aws_elb.webappelb&#45;&gt;[root] aws_security_group.web_app_elb_sg -->
<g id="edge3" class="edge">
<title>[root] aws_elb.webappelb&#45;&gt;[root] aws_security_group.web_app_elb_sg</title>
<path fill="none" stroke="#000000" d="M497.3434,-143.8314C496.1669,-136.131 494.768,-126.9743 493.4606,-118.4166"/>
<polygon fill="#000000" stroke="#000000" points="496.9025,-117.7699 491.9323,-108.4133 489.9828,-118.8272 496.9025,-117.7699"/>
</g>
<!-- [root] data.aws_availability_zones.all -->
<g id="node6" class="node">
<title>[root] data.aws_availability_zones.all</title>
<polygon fill="none" stroke="#000000" points="811.5576,-108 620.6807,-108 620.6807,-72 811.5576,-72 811.5576,-108"/>
<text text-anchor="middle" x="716.1191" y="-85.8" font-family="Times,serif" font-size="14.00" fill="#000000">data.aws_availability_zones.all</text>
</g>
<!-- [root] aws_elb.webappelb&#45;&gt;[root] data.aws_availability_zones.all -->
<g id="edge4" class="edge">
<title>[root] aws_elb.webappelb&#45;&gt;[root] data.aws_availability_zones.all</title>
<path fill="none" stroke="#000000" d="M554.3463,-143.9243C584.0031,-134.0387 620.9229,-121.7321 652.0012,-111.3726"/>
<polygon fill="#000000" stroke="#000000" points="653.4897,-114.5659 661.8697,-108.0831 651.2761,-107.9251 653.4897,-114.5659"/>
</g>
<!-- [root] aws_security_group.web_app_sg -->
<g id="node5" class="node">
<title>[root] aws_security_group.web_app_sg</title>
<polygon fill="none" stroke="#000000" points="202.3576,-108 -.1193,-108 -.1193,-72 202.3576,-72 202.3576,-108"/>
<text text-anchor="middle" x="101.1191" y="-85.8" font-family="Times,serif" font-size="14.00" fill="#000000">aws_security_group.web_app_sg</text>
</g>
<!-- [root] aws_launch_configuration.my_ec2_asg_lc&#45;&gt;[root] aws_security_group.web_app_sg -->
<g id="edge5" class="edge">
<title>[root] aws_launch_configuration.my_ec2_asg_lc&#45;&gt;[root] aws_security_group.web_app_sg</title>
<path fill="none" stroke="#000000" d="M233.4546,-143.8314C209.5714,-134.1162 179.9901,-122.0831 154.8564,-111.8592"/>
<polygon fill="#000000" stroke="#000000" points="156.0443,-108.564 145.4625,-108.038 153.4067,-115.0481 156.0443,-108.564"/>
</g>
<!-- [root] var.distros -->
<g id="node8" class="node">
<title>[root] var.distros</title>
<ellipse fill="none" stroke="#000000" cx="289.1191" cy="-90" rx="69.1151" ry="18"/>
<text text-anchor="middle" x="289.1191" y="-85.8" font-family="Times,serif" font-size="14.00" fill="#000000">[root] var.distros</text>
</g>
<!-- [root] aws_launch_configuration.my_ec2_asg_lc&#45;&gt;[root] var.distros -->
<g id="edge6" class="edge">
<title>[root] aws_launch_configuration.my_ec2_asg_lc&#45;&gt;[root] var.distros</title>
<path fill="none" stroke="#000000" d="M280.8949,-143.8314C282.0714,-136.131 283.4703,-126.9743 284.7777,-118.4166"/>
<polygon fill="#000000" stroke="#000000" points="288.2555,-118.8272 286.306,-108.4133 281.3358,-117.7699 288.2555,-118.8272"/>
</g>
<!-- [root] provider.aws -->
<g id="node7" class="node">
<title>[root] provider.aws</title>
<polygon fill="none" stroke="#000000" points="489.1191,-36 410.5108,-18 489.1191,0 567.7275,-18 489.1191,-36"/>
<text text-anchor="middle" x="489.1191" y="-13.8" font-family="Times,serif" font-size="14.00" fill="#000000">provider.aws</text>
</g>
<!-- [root] aws_security_group.web_app_elb_sg&#45;&gt;[root] provider.aws -->
<g id="edge7" class="edge">
<title>[root] aws_security_group.web_app_elb_sg&#45;&gt;[root] provider.aws</title>
<path fill="none" stroke="#000000" d="M489.1191,-71.8314C489.1191,-64.131 489.1191,-54.9743 489.1191,-46.4166"/>
<polygon fill="#000000" stroke="#000000" points="492.6192,-46.4132 489.1191,-36.4133 485.6192,-46.4133 492.6192,-46.4132"/>
</g>
<!-- [root] var.web_server_port -->
<g id="node9" class="node">
<title>[root] var.web_server_port</title>
<ellipse fill="none" stroke="#000000" cx="195.1191" cy="-18" rx="104.7955" ry="18"/>
<text text-anchor="middle" x="195.1191" y="-13.8" font-family="Times,serif" font-size="14.00" fill="#000000">[root] var.web_server_port</text>
</g>
<!-- [root] aws_security_group.web_app_elb_sg&#45;&gt;[root] var.web_server_port -->
<g id="edge8" class="edge">
<title>[root] aws_security_group.web_app_elb_sg&#45;&gt;[root] var.web_server_port</title>
<path fill="none" stroke="#000000" d="M415.31,-71.9243C369.3545,-60.6699 310.5863,-46.2777 265.3241,-35.1931"/>
<polygon fill="#000000" stroke="#000000" points="266.1348,-31.7882 255.5893,-32.809 264.4697,-38.5873 266.1348,-31.7882"/>
</g>
<!-- [root] aws_security_group.web_app_sg&#45;&gt;[root] provider.aws -->
<g id="edge9" class="edge">
<title>[root] aws_security_group.web_app_sg&#45;&gt;[root] provider.aws</title>
<path fill="none" stroke="#000000" d="M198.277,-71.9707C273.2874,-58.0513 374.2765,-39.311 435.3802,-27.9722"/>
<polygon fill="#000000" stroke="#000000" points="436.3783,-31.3468 445.5718,-26.0809 435.1011,-24.4643 436.3783,-31.3468"/>
</g>
<!-- [root] aws_security_group.web_app_sg&#45;&gt;[root] var.web_server_port -->
<g id="edge10" class="edge">
<title>[root] aws_security_group.web_app_sg&#45;&gt;[root] var.web_server_port</title>
<path fill="none" stroke="#000000" d="M124.8393,-71.8314C136.707,-62.7412 151.2239,-51.6219 163.9765,-41.8539"/>
<polygon fill="#000000" stroke="#000000" points="166.2459,-44.5244 172.0565,-35.665 161.9894,-38.9673 166.2459,-44.5244"/>
</g>
<!-- [root] data.aws_availability_zones.all&#45;&gt;[root] provider.aws -->
<g id="edge11" class="edge">
<title>[root] data.aws_availability_zones.all&#45;&gt;[root] provider.aws</title>
<path fill="none" stroke="#000000" d="M659.1305,-71.9243C619.6356,-59.3973 567.884,-42.9827 531.8991,-31.569"/>
<polygon fill="#000000" stroke="#000000" points="532.7811,-28.177 522.1909,-28.4897 530.6647,-34.8494 532.7811,-28.177"/>
</g>
<!-- [root] meta.count&#45;boundary (count boundary fixup) -->
<g id="node10" class="node">
<title>[root] meta.count&#45;boundary (count boundary fixup)</title>
<ellipse fill="none" stroke="#000000" cx="515.1191" cy="-306" rx="191.6931" ry="18"/>
<text text-anchor="middle" x="515.1191" y="-301.8" font-family="Times,serif" font-size="14.00" fill="#000000">[root] meta.count&#45;boundary (count boundary fixup)</text>
</g>
<!-- [root] meta.count&#45;boundary (count boundary fixup)&#45;&gt;[root] aws_autoscaling_group.my_ec2_asg -->
<g id="edge12" class="edge">
<title>[root] meta.count&#45;boundary (count boundary fixup)&#45;&gt;[root] aws_autoscaling_group.my_ec2_asg</title>
<path fill="none" stroke="#000000" d="M458.3517,-288.7542C425.0555,-278.6389 382.7379,-265.7829 347.4759,-255.0704"/>
<polygon fill="#000000" stroke="#000000" points="348.3162,-251.6678 337.7306,-252.1098 346.2814,-258.3656 348.3162,-251.6678"/>
</g>
<!-- [root] output.elb_dns_name -->
<g id="node11" class="node">
<title>[root] output.elb_dns_name</title>
<ellipse fill="none" stroke="#000000" cx="515.1191" cy="-234" rx="108.196" ry="18"/>
<text text-anchor="middle" x="515.1191" y="-229.8" font-family="Times,serif" font-size="14.00" fill="#000000">[root] output.elb_dns_name</text>
</g>
<!-- [root] meta.count&#45;boundary (count boundary fixup)&#45;&gt;[root] output.elb_dns_name -->
<g id="edge13" class="edge">
<title>[root] meta.count&#45;boundary (count boundary fixup)&#45;&gt;[root] output.elb_dns_name</title>
<path fill="none" stroke="#000000" d="M515.1191,-287.8314C515.1191,-280.131 515.1191,-270.9743 515.1191,-262.4166"/>
<polygon fill="#000000" stroke="#000000" points="518.6192,-262.4132 515.1191,-252.4133 511.6192,-262.4133 518.6192,-262.4132"/>
</g>
<!-- [root] output.elb_dns_name&#45;&gt;[root] aws_elb.webappelb -->
<g id="edge14" class="edge">
<title>[root] output.elb_dns_name&#45;&gt;[root] aws_elb.webappelb</title>
<path fill="none" stroke="#000000" d="M511.334,-215.8314C509.7298,-208.131 507.8221,-198.9743 506.0393,-190.4166"/>
<polygon fill="#000000" stroke="#000000" points="509.4213,-189.4892 503.9552,-180.4133 502.5684,-190.9169 509.4213,-189.4892"/>
</g>
<!-- [root] provider.aws (close) -->
<g id="node12" class="node">
<title>[root] provider.aws (close)</title>
<ellipse fill="none" stroke="#000000" cx="201.1191" cy="-306" rx="104.3276" ry="18"/>
<text text-anchor="middle" x="201.1191" y="-301.8" font-family="Times,serif" font-size="14.00" fill="#000000">[root] provider.aws (close)</text>
</g>
<!-- [root] provider.aws (close)&#45;&gt;[root] aws_autoscaling_group.my_ec2_asg -->
<g id="edge15" class="edge">
<title>[root] provider.aws (close)&#45;&gt;[root] aws_autoscaling_group.my_ec2_asg</title>
<path fill="none" stroke="#000000" d="M220.1529,-288.2022C229.5219,-279.4416 240.9781,-268.7293 251.2245,-259.1482"/>
<polygon fill="#000000" stroke="#000000" points="253.8558,-261.4796 258.7696,-252.0931 249.0748,-256.3666 253.8558,-261.4796"/>
</g>
<!-- [root] root -->
<g id="node13" class="node">
<title>[root] root</title>
<ellipse fill="none" stroke="#000000" cx="358.1191" cy="-378" rx="46.8976" ry="18"/>
<text text-anchor="middle" x="358.1191" y="-373.8" font-family="Times,serif" font-size="14.00" fill="#000000">[root] root</text>
</g>
<!-- [root] root&#45;&gt;[root] meta.count&#45;boundary (count boundary fixup) -->
<g id="edge16" class="edge">
<title>[root] root&#45;&gt;[root] meta.count&#45;boundary (count boundary fixup)</title>
<path fill="none" stroke="#000000" d="M388.3903,-364.1177C410.7699,-353.8544 441.688,-339.6754 467.3824,-327.892"/>
<polygon fill="#000000" stroke="#000000" points="468.9562,-331.0208 476.587,-323.6708 466.0382,-324.658 468.9562,-331.0208"/>
</g>
<!-- [root] root&#45;&gt;[root] provider.aws (close) -->
<g id="edge17" class="edge">
<title>[root] root&#45;&gt;[root] provider.aws (close)</title>
<path fill="none" stroke="#000000" d="M327.848,-364.1177C304.9922,-353.6361 273.2308,-339.0703 247.223,-327.1432"/>
<polygon fill="#000000" stroke="#000000" points="248.4774,-323.868 237.9287,-322.8808 245.5594,-330.2308 248.4774,-323.868"/>
</g>
</g>
</svg>
